# xmcd
#
# Track frame offsets:
#	150
#	16303
#	32296
#	41536
#	56947
#	69498
#	80190
#	94240
#	108437
#	124221
#	140364
#	154710
#	168960
#	183960
#	205439
#	218726
#	230474
#
# Disc length: 3333 seconds
# Revision: 0
# Processed by: cddbd v1.5.2PL0 Copyright (c) Steve Scherf et al.
# Submitted via: dBpowerAMP V12.0
#
DISCID=ea0d0311
DTITLE=Fred Hargrove - Campfire Cowboy
DYEAR=2009
DGENRE=Country
TTITLE0=Someday Soon
TTITLE1=Mammas Don't Let Your Babies Grow Up To Be Cowboys
TTITLE2=King of the Road
TTITLE3=The Strawberry Roan
TTITLE4=I Cross My Heart
TTITLE5=Red River Valley
TTITLE6=Utah Carol
TTITLE7=Lonesome Rodeo Cowboy
TTITLE8=Nightrider's Lament
TTITLE9=The Cowboy's Song
TTITLE10=Ponies
TTITLE11=Once Too Often
TTITLE12=Koda
TTITLE13=Happy Clown
TTITLE14=Salamosa Blues
TTITLE15=Singing Sands of Alamosa
TTITLE16=Autumn on the Range - Sure Ain't a Mowie
EXTD=
EXTT0=
EXTT1=
EXTT2=
EXTT3=
EXTT4=
EXTT5=
EXTT6=
EXTT7=
EXTT8=
EXTT9=
EXTT10=
EXTT11=
EXTT12=
EXTT13=
EXTT14=
EXTT15=
EXTT16=
PLAYORDER=
